<?xml version="1.0" encoding="utf-8"?>
<!-- Generator: Adobe Illustrator 27.0.0, SVG Export Plug-In . SVG Version: 6.00 Build 0)  -->
<svg version="1.1" id="Layer_1" xmlns="http://www.w3.org/2000/svg" xmlns:xlink="http://www.w3.org/1999/xlink" x="0px" y="0px"
	 viewBox="0 0 3061.42 3061.42" style="enable-background:new 0 0 3061.42 3061.42;" xml:space="preserve">
<style type="text/css">
	.st0{fill:#FFFFFF;stroke:#3BE0B5;stroke-width:34.1867;stroke-miterlimit:10;}
	.st1{fill:#3BE0B5;}
</style>
<circle class="st0" cx="1477.75" cy="1530.71" r="1262.03"/>
<g>
	<path class="st1" d="M1838.12,1215.18c-1.08,10.34-2.2,16.2-2.22,22.06c-0.15,47.09,0.29,94.19-0.3,141.28
		c-0.19,15.65,3.96,22.83,21.42,24.48c50.96,4.82,86.46,36.2,98.94,84.23c10.34,39.76-9.66,89.96-46.58,116.93
		c-31.35,22.9-94.67,15.26-114.63-15.71c18-5.17,35.49-9.83,52.75-15.21c39.73-12.39,56.01-39.57,45.01-73.65
		c-7.01-21.72-24.18-31.98-44.21-34.69c-26.16-3.54-52.92-2.32-79.29-4.65c-9.01-0.8-19.89-3.89-25.94-9.92
		c-12.83-12.78-23.04-28.19-38.72-48.1c20.3,0,34.82-0.68,49.24,0.17c18.71,1.1,20.81-9.76,20.83-24.63
		c0.02-14.98-2.69-27.49-20.9-24.17c-38.91,7.09-55.52-18.54-75.07-49.59c26.42,0,49.32-1.11,72.07,0.32
		c22.07,1.39,23.76-10.69,23.99-27.94c0.24-17.84-4.75-28.25-24.22-25.3c-33.82,5.14-56.96-9.39-75.49-40.58
		c49.9,0,97.22,0,144.54,0c0.92-2.01,1.84-4.01,2.75-6.02c-109.82-54.9-213.67-117.59-288.13-218.63c-1.61,0.66-3.21,1.32-4.82,1.98
		c0,19.97-4.18,41.16,1.18,59.57c5.32,18.25,20.26,33.69,33.36,54.07c-5.89,5.38-17.24,12.06-22.95,21.99
		c-6.21,10.79-8.58,24.54-9.1,37.15c-0.09,2.24,16.94,5.51,26.21,7.67c3.88,0.9,8.15,0.13,12.24,0.16
		c26.36,0.16,36.3,13.8,27.03,39.12c-1.73,4.73-9.34,8.75-14.99,10.24c-7.57,2-15.87,1.2-29.65,1.9
		c15.77,21.57,28.42,39.55,41.75,57.01c50.47,66.12,100.98,132.21,151.94,197.94c9.07,11.7,8.8,18.98-3.77,27.98
		c-26.02,18.63-50.55,39.34-76.59,57.94c-15.11,10.79-24.97,22.86-22.49,42.36c2.07,16.29-4.57,28.46-16.3,39.73
		c-13.16,12.65-24.43,27.25-36.53,41c-1.93-1.21-3.86-2.42-5.79-3.63c-1-4.17-2.86-8.34-2.88-12.52
		c-0.2-44.36,0.26-88.73-0.28-133.09c-0.19-15.79,5.93-21.71,21.73-21.84c29.62-0.24,36.31-4.86,52.14-30.35
		c-40.25-40.93-32.35-35.74-66.45-2.98c-12.77,12.27-27.91,22.71-38.18,36.76c-7.7,10.54-13.03,25.49-13.12,38.53
		c-0.9,132.4-0.51,264.82-0.48,397.23c0.01,23.89,0.96,47.83-0.28,71.65c-1.01,19.41,5.76,26.39,25.63,26.13
		c71.61-0.92,143.25-0.35,214.87-0.35c140.52,0,281.05,0.02,421.57-0.02c29.21-0.01,29.23-0.1,29.31-29.9
		c0.04-12.62,0.01-25.24,0.01-44.13c24.76,19.39,46.6,32.69,62.95,50.92c7.81,8.71,6.78,26.73,7.07,40.59
		c0.83,40.43,0.3,40.45-39.35,40.45c-246.26,0-492.51,0.01-738.77-0.01c-32.6,0-32.64-0.06-32.64-33.12
		c0.02-176.09,0.45-352.19-0.34-528.28c-0.11-24.27,4.17-44.17,24.41-58.96c13.11-9.58,12.98-19.99-0.04-29.51
		c-20.26-14.82-24.49-34.74-24.35-58.99c0.83-138.55,0.05-277.1,0.57-415.65c0.04-10.75,5.84-21.47,8.96-32.21
		c2.48-0.08,4.96-0.15,7.44-0.23c-7.89-10.01-15.78-20.03-25.86-32.83c-9.72,11.72-18.49,22.3-27.26,32.87
		c2.17,0.06,4.34,0.13,6.51,0.19c3.29,10.16,9.4,20.3,9.44,30.47c0.56,144.01-0.06,288.03,0.66,432.04
		c0.1,20.02-10.27,31.82-23.28,42.91c-13.2,11.24-12.98,21.85,0.1,31.81c19.4,14.77,23.32,34.03,23.22,57.5
		c-0.76,177.45-0.37,354.91-0.38,532.37c0,29.04-0.59,29.61-29.99,29.61c-250.35,0.03-500.7,0.03-751.05,0
		c-29.13,0-29.55-0.55-29.67-29.94c-0.03-7.51,0.57-15.07-0.11-22.51c-1.67-18.05,4.38-31.14,20.27-41.2
		c15.79-10,29.97-22.55,49.98-37.92c0,21.22,0.58,36.56-0.16,51.84c-0.75,15.5,4.94,22.05,21.18,22.03
		c216.24-0.32,432.48-0.31,648.73,0c15.99,0.02,21.51-6,21.48-21.74c-0.29-159.71,0.09-319.42-0.59-479.13
		c-0.04-9.72-5.2-21.34-11.75-28.74c-17.59-19.9-37.05-38.17-56.11-56.74c-14.52-14.14-24.89-11.23-45.22,10.71
		c-12,12.95,2.13,17.34,7.35,24.6c10.04,13.95,24.65,15.54,40.23,14.57c12.39-0.77,21.51,2.24,21.43,17.52
		c-0.24,48.46-0.08,96.91-0.21,145.37c-0.01,2.47-1.28,4.94-3.11,11.51c-25.62-29.72-64.98-45.33-59.45-93.06
		c1.01-8.7-8.2-21.25-16.15-27.84c-30.4-25.19-62.21-48.66-96.8-75.33c67.88-89.53,134.98-178.03,204.19-269.31
		c-9.12-1.59-14.13-2.99-19.2-3.27c-23.72-1.31-35.15-19.6-24.51-41.27c2.07-4.22,9.25-7.48,14.5-8.25
		c9.36-1.36,19.19,0.5,28.55-0.85c8.01-1.15,21.84-4.1,22.3-7.66c1.38-10.57,0.32-23.65-5.16-32.38
		c-6.98-11.12-19.22-18.93-32.36-31.11c46.43-25.08,42.97-64.98,37.6-111.61c-76.54,102.26-178.38,164.24-286.62,217.68
		c0.4,1.74,0.8,3.48,1.21,5.22c47.46,0,94.93,0,143.43,0c-7.03,20.75-32.55,41.35-49.99,42.51c-6.11,0.41-12.27,0.15-18.41,0.2
		c-27.16,0.2-27.92,1.83-28.55,29.22c-0.41,17.55,5.72,24.9,23.69,24.04c21.5-1.02,43.08-0.24,65.55-0.24
		c-11.83,36.2-29.55,48.98-65,49.27c-26.08,0.21-27.32,2.11-28.23,25.42c-0.69,17.81,6.08,24.95,23.84,23.78
		c12.18-0.8,24.49,0.37,36.74,0.83c1.14,0.04,2.23,1.34,7.46,4.7c-14.72,17.61-28.77,35.26-44,51.82
		c-2.59,2.81-10.23,1.05-15.54,1.25c-27.14,1.05-54.53,0.19-81.37,3.58c-27.96,3.53-43.21,21.7-45.38,47.46
		c-2.48,29.37,8.88,47.44,37.84,57.55c19.62,6.85,39.77,12.17,61.24,18.65c-11.39,18.35-23.84,27.06-44.19,27.81
		c-37.67,1.38-70.49-2.3-95.34-36.96c-50.78-70.83-11.66-165.86,75.12-176.02c18.24-2.13,22.71-9.06,22.46-25.64
		c-0.71-45.72-0.18-91.46-0.29-137.18c-0.01-6.63-0.79-13.26-1.5-24.53c-29.99,16.88-57.34,31.54-83.97,47.42
		c-60.97,36.35-121.46,73.4-169.99,126.63c-48.34,53.02-87.38,112.44-111.84,179.51c-11.63,31.88-15.44,67.87-16.32,102.17
		c-2.2,85.26-0.42,170.62-1.08,255.93c-0.07,8.91-4.76,24.77-9.09,25.42c-15.58,2.32-32.02,0.17-47.87-2.14
		c-2.3-0.33-4.44-10.74-4.45-16.49c-0.21-113.3-0.83-226.61,0.65-339.89c0.26-19.75,6.55-40.86,15.23-58.85
		c74.17-153.78,187.22-269.42,339.94-346.93c84.38-42.83,169.4-84.85,243.67-145.25c60.83-49.46,111.37-107.79,157.26-170.81
		c9.96-13.68,4.07-21.71-5.65-31.27c-20.83-20.49-20.94-21.23-0.03-40.98c9.84-9.3,21.61-16.55,32.5-24.73
		c-1.87-1.97-3.73-3.94-5.6-5.91c-0.85-1.82-1.2-4.38-2.63-5.35c-31.7-21.48-32.41-53.28-31.37-87.05
		c0.42-13.85-6.87-27.86-9.95-41.95c-1.02-4.67-1.53-10.78,0.62-14.61c17.32-30.95,14.62-97.39-6.94-125.19
		c-8.96-11.55-10.19-20.26-0.69-32.39c22.59-28.84,43.82-58.75,65.6-88.23c2.09,0.37,4.19,0.75,6.28,1.12c0,122.35,0,244.7,0,367.05
		c2.71,0.22,5.42,0.43,8.13,0.65c1.03-6.52,2.83-13.03,2.95-19.57c0.45-23.88-2.99-48.42,1.5-71.45
		c3.48-17.84,1.94-33.18,0.92-50.75c-4.34-74.7-1.84-149.8-1.84-230.57c7.4,7.78,11.57,11.41,14.84,15.73
		c19.32,25.57,37.82,51.79,57.88,76.76c9.05,11.27,9.64,20.88,0.15,30.58c-30.89,31.59-16.64,70.66-18.06,107.07
		c-0.14,3.49,2.77,7.97,5.58,10.53c9.57,8.73,11.42,16.01,2.39,27.58c-5.08,6.5-4.35,17.94-5.18,27.25
		c-0.78,8.8-1.01,17.83-0.01,26.59c2.98,26.2-2.54,48.59-25.27,64.73c-3.62,2.57-5.76,7.23-13.41,17.1
		c12.73,10.2,25.46,20.41,38.19,30.6c9.95,7.96,10.77,15.03,1.08,25.09c-25.87,26.84-25.37,27.23-3.52,56.94
		c77.25,105,173.44,187.34,288.96,248.3c72.82,38.43,145.76,77.65,214.08,123.34c104.55,69.91,177.04,168.86,229.2,282.28
		c10.21,22.19,14.42,48.87,14.8,73.57c1.6,104.4,0.76,208.84,0.69,313.27c-0.02,25.28-1.4,26.45-26.74,26.72
		c-39.13,0.42-39.15,0.42-39.14-38.92c0.01-76.43-3.12-153.03,0.92-229.26c4.2-79.3-23.39-146.2-63.38-211.59
		c-58.64-95.88-144.27-160.28-239.76-214.28C1892.18,1246.74,1866.65,1231.69,1838.12,1215.18z M1408.95,1281.95
		c-20.03,13.34-29.4,26.43-27.9,46.75c1.3,17.6,0.28,35.38,0.29,53.08c0,17.23,0,34.47,0,51.7c2.25,0.75,4.49,1.5,6.74,2.25
		c6.96-9.4,19.37-18.5,19.92-28.26C1410.26,1367.05,1408.95,1326.44,1408.95,1281.95z M1545.24,1281.92c0,40.53,0.5,76.5-0.2,112.44
		c-0.38,19.54,9.52,30.85,28.59,41.9c0-39.1-0.7-74.92,0.28-110.7C1574.45,1305.81,1564.54,1294.34,1545.24,1281.92z
		 M1478.54,850.31c9-12.37,21.08-21.78,20.94-31c-0.12-7.74-14.49-15.26-22.55-22.88c-7.68,8.65-20.59,16.84-21.41,26.1
		C1454.85,830.13,1468.56,839,1478.54,850.31z"/>
	<path class="st1" d="M1950.82,1600.66c15.99-20.69,28.44-38.44,42.81-54.46c4.69-5.23,14.36-8.21,21.83-8.34
		c43.61-0.77,87.24,0,130.85-0.61c16.37-0.23,21.16,7.19,21.13,22.36c-0.26,139.79-0.16,279.59-0.03,419.39
		c0.01,12.36-2.34,21.57-17.58,21.51c-64.06-0.24-128.12-0.19-192.19-0.37c-1.81-0.01-3.62-1.41-7.32-2.96
		c27.67-29.82,10.78-66.13,16.57-99.15c2.91-16.62,8.61-34,17.74-47.96c11.44-17.5,31.13-21.68,51.12-15.32
		c22.21,7.07,34.95,23.19,37.23,46.52c1.06,10.82,1.01,21.84,0.32,32.7c-1.06,16.69,7.35,20.84,22.39,20.86
		c15.14,0.01,22.49-4.4,22.37-20.96c-0.5-69.55-0.16-139.11-0.14-208.67c0.01-26.6-0.64-53.21,0.22-79.78
		c0.56-17.11-6.64-22.75-23.08-22.49c-42.25,0.65-84.51,0.23-126.77,0.1C1964.38,1603.02,1960.46,1602.01,1950.82,1600.66z
		 M2036.27,1910.4c-0.45-5.69-0.03-11.99-1.62-17.74c-2.92-10.55-19.38-14.65-21.34-6.11c-3.54,15.45-3.4,32.67-0.39,48.3
		c1.45,7.54,19.59,3.4,21.95-5.89C2036.35,1923.17,2035.86,1916.88,2036.27,1910.4z"/>
	<path class="st1" d="M999.63,1999.24c-2.11,0.2-7.86,1.23-13.61,1.25c-56.6,0.12-113.21-0.45-169.8,0.36
		c-18.62,0.27-25.02-6.29-24.94-24.98c0.59-137.83,0.6-275.65,0.13-413.48c-0.06-18.26,5.52-25.81,24.6-25.29
		c38.84,1.05,77.76,1.08,116.59-0.05c17.39-0.51,30,4.25,39.8,18.82c9.4,13.97,20.21,26.99,33.29,44.23
		c-11.29,1.36-18.19,2.87-25.1,2.91c-40.23,0.24-80.48,0.6-120.7-0.08c-16.57-0.28-23.08,5.66-22.99,22.62
		c0.51,95.52,0.53,191.05,0.05,286.57c-0.08,16.82,5.96,22.75,22.74,22.82c17.33,0.07,22.71-7,22.29-23.32
		c-0.33-12.79,0.37-26.12,3.66-38.38c6.73-25.07,27.59-41.08,49.97-40.92c24.91,0.17,48.15,16.9,52.72,43.03
		c4.07,23.27,2.47,47.48,4.37,71.19C994.07,1963.49,997.08,1980.31,999.63,1999.24z M947.48,1912.48c-0.32-6.08,1.08-13.06-1.46-18
		c-2.47-4.81-8.99-7.53-13.73-11.17c-4.38,8.17-11.71,16.1-12.39,24.57c-0.84,10.44-7.3,26.41,11.03,29.6
		c4.51,0.78,11.79-4.59,14.99-9.11C948.59,1924.59,947.14,1917.91,947.48,1912.48z"/>
	<path class="st1" d="M1889.02,1849.53c0,29.94,0,54.55,0,82.08c9.77-4.51,16.17-6.65,21.7-10.17c12.31-7.85,19.26-3.78,25.76,8.25
		c7.62,14.09-2.65,15.96-11.22,20.17c-25.1,12.33-48.93,25.18-45.57,60.1c0.43,4.48-10.71,14.46-16.55,14.52
		c-98.83,0.91-197.68,0.6-296.52,0.71c-13.37,0.01-17.75-6.99-17.71-19.32c0.18-62.07,0.31-124.13-0.04-186.2
		c-0.09-15.09,6.49-20.53,21.02-20.33c34.08,0.48,68.17-0.32,102.25,0.34c25.33,0.49,47.08,26.22,47.54,54.59
		c0.49,30.2-20.44,55.04-47.77,56.11c-14.3,0.56-28.64,0.6-42.94,0.17c-16.54-0.49-18.61,9.6-18.45,22.7
		c0.14,12.1,1.62,21.78,17.22,21.74c66.12-0.19,132.24-0.24,198.36,0.04c19.06,0.08,19.24-13.23,17.18-25.31
		C1837.07,1893.43,1858.52,1873.05,1889.02,1849.53z M1633.06,1875.5c11.99-7.53,26.98-12.02,27.87-18.48
		c2.17-15.62-12.69-16.25-24.4-15.99c-10.76,0.24-26.47-3.65-24.48,14.52C1612.75,1861.95,1623.89,1867.2,1633.06,1875.5z"/>
	<path class="st1" d="M802.61,2381.64c-37.49,0.01-74.98-0.55-112.45,0.25c-17.97,0.39-21.77-8.47-21.57-24.03
		c0.2-15.25,1.38-26.45,21.48-26.25c68.83,0.69,137.67,0.39,206.51,0c7.83-0.04,17.81-0.69,22.84-5.33
		c4.71-4.36,7.65-16.12,5.01-21.49c-3.07-6.24-12.93-12.52-20.08-12.79c-35.39-1.34-70.86-0.7-106.3-0.75
		c-24.54-0.03-49.08,0.35-73.61-0.15c-35.79-0.73-63.94-25.42-67.67-58.62c-4.02-35.69,16.35-66.56,51.02-76.11
		c9.75-2.68,20.08-4.46,30.16-4.52c68.84-0.39,137.68,0.32,206.51-0.55c19.64-0.25,23.97,8.13,24.28,25.78
		c0.34,19.18-7.27,24.76-25.43,24.57c-66.79-0.69-133.59-0.55-200.37,0.12c-8.7,0.09-20.41,2.53-25.4,8.41
		c-11.34,13.36-0.44,31.01,18.53,31.13c57.25,0.37,114.51-0.21,171.75,0.34c44.94,0.43,72.69,27.99,72.57,70.65
		c-0.11,40.52-26.73,68.41-67.37,69.17C876.23,2382.18,839.42,2381.63,802.61,2381.64z"/>
	<path class="st1" d="M1011.02,1940.75c10.53-9.63,17.59-21.3,25.86-22.23c8.9-1,18.93,8.07,32.36,14.66c0-27.23,0-50.61,0-75.02
		c26.96,10.19,42.06,30.95,42.19,55.5c0.24,45.04-3.88,41.29,42.45,41.35c56.56,0.08,113.13-0.17,169.69,0.14
		c14.45,0.08,25.02-1.11,25.09-20.26c0.07-19.28-8.25-25.61-26.04-24.44c-10.18,0.67-20.44,0.16-30.66,0.09
		c-31.87-0.23-54.12-23.13-54.13-55.68c-0.01-31.69,21.86-54.98,52.68-55.31c32.03-0.34,64.06,0.21,96.09-0.16
		c13.87-0.16,19.63,5.78,19.58,19.6c-0.24,62.05-0.29,124.1,0.1,186.15c0.1,15.22-6.78,20.26-21.16,20.22
		c-95.41-0.27-190.82-0.13-286.23-0.16c-9.98,0-21.42-0.78-20.15-14.09c3.24-34.01-22.41-45.11-44.57-59.21
		C1029.1,1948.66,1023.28,1946.58,1011.02,1940.75z M1319.72,1869.33c0.61,1.09,1.21,2.18,1.82,3.26
		c8.64-4.48,17.8-8.28,25.46-14.06c1.43-1.08-2.69-14.54-5.04-14.79c-13.16-1.38-26.69-1.45-39.77,0.38
		c-3.33,0.46-6.97,9.28-7.55,14.58c-0.3,2.76,5.23,7.57,9.05,9.01C1308.55,1869.55,1314.33,1868.91,1319.72,1869.33z"/>
	<path class="st1" d="M1578.41,2154.68c43.55,0,87.43-3.3,130.57,0.92c43.93,4.3,64.63,37.42,61.21,85.95
		c-2.85,40.35-32.49,69.18-74.16,69.82c-55.23,0.85-110.49,0.22-165.73,0.3c-29.69,0.04-30.01,0.41-30.1,29.4
		c-0.01,4.09,0.03,8.19,0,12.28c-0.16,27.58-0.97,28.36-29.16,28.33c-27.62-0.03-28.47-0.83-28.52-28.92
		c-0.04-23.88,0.85-47.8-0.13-71.64c-0.74-17.99,6.52-23.71,24.03-23.56c72.97,0.65,145.95,0.39,218.93,0.15
		c22.12-0.07,27.23-6.52,27.15-28.38c-0.07-19.48-11.05-23.98-27.8-23.92c-70.93,0.26-141.86,0.13-212.79,0.07
		c-26.59-0.02-40.67-22.9-27.14-45.85c2.8-4.75,12.47-7.5,19.05-7.62c38.18-0.7,76.38-0.34,114.58-0.34
		C1578.4,2152.68,1578.41,2153.68,1578.41,2154.68z"/>
	<path class="st1" d="M2131.29,2278.36c10.21-28.26,19.37-52.83,27.96-77.6c12.59-36.3,29.54-48.79,68.06-49.09
		c17.04-0.13,34.09,0.31,51.12-0.08c13.27-0.3,20.35,4.43,20.28,18.86c-0.3,64.11-0.27,128.22-0.11,192.33
		c0.03,12.62-4.88,19.31-18.06,18.84c-6.13-0.22-12.3-0.37-18.4,0.11c-15.95,1.25-21.76-6.1-21.59-21.75
		c0.48-44.33,0.5-88.67-0.42-132.99c-0.17-8.13-5.59-16.14-8.58-24.21c-7.6,6.67-18.95,11.88-22.19,20.24
		c-17.5,45.11-33.49,90.83-48.9,136.71c-4.98,14.84-11.55,22.68-28.66,22.44c-16.47-0.23-25.88-4.37-31.55-21.38
		c-15.29-45.9-33.14-90.94-48.86-136.71c-5.56-16.19-15.2-23.18-31.69-22.69c-10.9,0.32-21.87-0.71-32.71,0.15
		c-18.3,1.45-25.62-5.5-25.31-24.57c0.28-17.79,4.86-26.91,24.41-25.58c17.64,1.2,35.43,0.12,53.15,0.33
		c28.15,0.33,48.13,12.44,57.71,39.97c8.29,23.82,17.03,47.48,25.81,71.12C2124.33,2266.97,2127.04,2270.68,2131.29,2278.36z"/>
	<path class="st1" d="M1185.08,2155.32c44.91,0,90.03-2.76,134.65,0.86c36.23,2.94,55.76,31.95,57.36,73.26
		c1.49,38.28-17.69,68.26-50.87,77.32c-11.67,3.19-24.16,4.56-36.3,4.68c-50.47,0.5-100.95,0.18-151.43,0.23
		c-31.17,0.03-31.2,0.11-31.28,30.3c-0.01,4.09,0.03,8.19,0,12.29c-0.21,26.33-1.27,27.37-28.03,27.44
		c-28.93,0.07-29.61-0.57-29.64-29.85c-0.02-23.89,0.75-47.8-0.08-71.66c-0.59-16.92,6.18-22.71,22.87-22.58
		c72.98,0.57,145.97,0.34,218.96,0.14c23.34-0.06,28.85-6.74,28.17-29.39c-0.6-20.21-13.94-22.73-29.38-22.75
		c-70.94-0.11-141.89,0.17-212.82-0.42c-8.66-0.07-23.63-2.99-24.73-7.35c-3.18-12.58-2.08-26.82,0.39-39.84
		c0.61-3.23,12.73-5.95,19.6-6.05c37.51-0.58,75.03-0.28,112.55-0.28C1185.07,2152.88,1185.08,2154.1,1185.08,2155.32z"/>
	<path class="st1" d="M1012.62,1875.31c0-12.06-0.26-24.13,0.07-36.18c0.34-12.6-4.88-18.17-17.97-19.06
		c-47.47-3.26-47.45-3.61-47.44-50.88c0-40.77,0-81.55,0-125.31c7.5,2.77,12.08,4.86,16.88,6.16c18.14,4.93,36.12,12.42,54.56,13.88
		c61.11,4.81,97.1,36.68,104.52,97.2c1.58,12.9,6.58,18.13,19.21,17.88c18.39-0.35,36.79,0.33,55.18-0.09
		c13.57-0.31,20.13,5.08,20.02,19.17c-0.3,38.85-0.2,77.71-0.06,116.56c0.05,13.43-5.98,19.36-19.63,20.34
		c-44.72,3.22-46.03,2.32-46.04-42.24c0-17.04-0.22-34.08-0.07-51.12c0.11-12.02-5.68-17.39-17.49-17.27
		c-16.35,0.17-32.85-1.27-48.99,0.58c-8.64,0.99-18.43,5.64-24.61,11.75c-13.92,13.76-25.91,29.47-38.69,44.39
		C1018.91,1879.15,1015.77,1877.23,1012.62,1875.31z M1025.09,1709.96c-10.22,5.17-19.88,7.27-24.29,13.25
		c-3.07,4.16-1.19,15.19,2.41,20.46c10.54,15.42,26.26,24,45.23,21.72c20.17-2.42,26.65-19.33,12.2-33.22
		C1050.94,1722.84,1037.45,1717.45,1025.09,1709.96z"/>
	<path class="st1" d="M1932.88,1881.44c-8.8-11.11-17.81-22.05-26.34-33.36c-14.39-19.07-32.92-25.18-56.86-24.3
		c-51.37,1.9-46.24-4.44-46.51,46.08c-0.08,14.99-0.37,29.99,0.03,44.96c0.37,13.48-4.93,20.76-19.08,20.01
		c-1.36-0.07-2.72,0.02-4.08,0.05c-38.79,1.07-38.81,1.07-38.8-37.08c0.01-32.7,0.39-65.41-0.09-98.11
		c-0.21-14.65,5.47-21.25,20.44-20.83c19.05,0.54,38.26,1.26,57.12-0.77c5.99-0.65,15.83-9.86,15.81-15.12
		c-0.16-55.65,42.35-91.24,90.11-96.36c13.49-1.45,27.2-2.26,40.31-5.42c12.96-3.12,25.3-8.84,40.21-14.25
		c0.94,6.42,2.46,12.11,2.48,17.8c0.2,44.97-0.06,89.93,0.22,134.9c0.08,13.14-4.26,19.81-18.63,20.69
		c-44.29,2.7-44.25,3.14-46.98,47.18c-0.16,2.62-1.02,5.2-1.55,7.8C1938.08,1877.36,1935.48,1879.4,1932.88,1881.44z
		 M1905.52,1765.51c26.21,0.82,51.53-17.16,51.91-32.09c0.39-15.4-9.85-19.32-22.9-19.6c-22.24-0.48-45.86,14.75-43.63,30.94
		C1892.11,1753.54,1902.2,1761.09,1905.52,1765.51z"/>
	<path class="st1" d="M1893.2,2267.55c-0.01,29.96-0.81,59.95,0.28,89.87c0.69,19.01-6.97,26.28-25.24,24.34
		c-5.39-0.57-12,1.72-16.06-0.67c-6.4-3.77-15.74-10.32-15.83-15.83c-1.09-65.35-1.1-130.73,0.01-196.07
		c0.1-5.83,9.01-13.84,15.6-16.6c6.97-2.92,16.06-0.64,24.22-0.84c13.82-0.34,17.15,7.95,17.09,19.79
		C1893.11,2203.54,1893.21,2235.55,1893.2,2267.55z"/>
	<path class="st1" d="M2015.98,2308.64c0,18.37-0.21,36.75,0.06,55.12c0.3,20.39-14.31,17.78-27.08,17.88
		c-13.01,0.1-26.91,1.94-26.72-18.29c0.34-37.42,0.12-74.86-0.15-112.28c-0.15-20.55,14.66-17.5,27.26-17.63
		c12.88-0.13,27.27-2.27,26.92,18.04c-0.33,19.05-0.07,38.11-0.07,57.16C2016.12,2308.64,2016.05,2308.64,2015.98,2308.64z"/>
	<path class="st1" d="M1282.79,1644.87c2.15,18.16-6.89,24-23.93,24.04c-16.17,0.04-21.16-6.98-21.27-22.27
		c-0.12-15.98,4.59-23.88,22.04-23.55C1275.18,1623.39,1285.21,1626.91,1282.79,1644.87z"/>
	<path class="st1" d="M1716.8,1644.93c1.81,15.82-3.12,23.91-19.74,23.96c-15.78,0.05-21.54-6.26-21.52-21.8
		c0.03-15.38,3.52-24.33,21.4-23.93C1713.25,1623.52,1719.16,1630.58,1716.8,1644.93z"/>
	<path class="st1" d="M1212.14,1717.69c-14.38,1.38-23.39-2.15-23.67-19.31c-0.28-17.27,7.27-22.22,23.26-22.05
		c14.89,0.16,22.52,4.45,22.46,20.82C1234.13,1713.22,1227.32,1719.52,1212.14,1717.69z"/>
	<path class="st1" d="M1310.5,1717.7c-14.32,1.34-23.49-2-23.78-19.23c-0.28-17.2,7.11-22.34,23.18-22.14
		c14.82,0.18,22.61,4.29,22.54,20.74C1332.38,1713.06,1325.76,1719.56,1310.5,1717.7z"/>
	<path class="st1" d="M1646.34,1717.67c-15.5,1.59-19.53-6.83-19.84-20.88c-0.38-16.87,8.22-20.41,22.83-20.35
		c16.1,0.06,18.74,8.91,18.85,22.27C1668.31,1714.34,1660.38,1719.11,1646.34,1717.67z"/>
	<path class="st1" d="M1746.69,1676.87c15.65-1.7,19.61,6.91,19.77,20.89c0.17,15.03-6.36,20.17-20.85,20.37
		c-16.37,0.23-21.05-7.33-20.88-22.43C1724.91,1680.01,1732.72,1675.4,1746.69,1676.87z"/>
</g>
</svg>
